<svg width="236" height="47" viewBox="0 0 236 47" fill="none" xmlns="http://www.w3.org/2000/svg">
<mask id="path-1-outside-1_12_468" maskUnits="userSpaceOnUse" x="-3" y="-3" width="245" height="53" fill="black">
<rect fill="white" x="-3" y="-3" width="245" height="53"/>
<path d="M32.2918 24.46L32.3518 29.08C32.1918 32 31.8318 34.46 31.2718 36.46C30.7118 38.46 29.6118 40.28 27.9718 41.92C25.2518 44.64 21.2918 46 16.0918 46C9.9718 46 5.7718 45.2 3.4918 43.6C1.2118 41.96 0.0717971 39.02 0.0717971 34.78V3.28H16.6918C21.4918 3.28 25.2518 4.64 27.9718 7.36C30.1718 9.56 31.4718 12.24 31.8718 15.4C32.1518 17.64 32.2918 20.66 32.2918 24.46ZM22.1518 35.92C22.9118 35 23.3918 33.74 23.5918 32.14C23.8318 30.5 23.9518 27.96 23.9518 24.52C23.9518 21.08 23.8318 18.6 23.5918 17.08C23.3918 15.52 22.9118 14.28 22.1518 13.36C20.7118 11.6 18.6318 10.72 15.9118 10.72H8.4118V34.36C8.4118 35.96 8.9518 37.06 10.0318 37.66C11.1118 38.26 13.0318 38.56 15.7918 38.56C18.5918 38.56 20.7118 37.68 22.1518 35.92ZM64.7026 30.7H44.7226C44.7226 33.82 45.2026 36.1 46.1626 37.54C47.1626 38.98 49.1426 39.7 52.1026 39.7C54.0226 39.7 55.4426 39.1 56.3626 37.9C57.2826 36.66 57.7426 35.48 57.7426 34.36H64.7626C64.7626 38.64 63.6026 41.78 61.2826 43.78C59.0026 45.78 55.9626 46.78 52.1626 46.78C48.4026 46.78 45.4826 46.24 43.4026 45.16C39.1226 42.96 36.9826 37.12 36.9826 27.64C36.9826 22 38.2026 17.88 40.6426 15.28C43.0826 12.64 46.8026 11.32 51.8026 11.32C60.4826 11.32 64.8226 16.14 64.8226 25.78C64.8226 26.82 64.7826 28.46 64.7026 30.7ZM44.9026 25.36H57.7426C57.7426 22.72 57.2426 20.8 56.2426 19.6C55.2426 18.4 53.7026 17.8 51.6226 17.8C49.5826 17.8 47.9426 18.42 46.7026 19.66C45.5026 20.86 44.9026 22.76 44.9026 25.36ZM95.4737 46H90.2537L87.8537 41.86L79.5137 46.36C74.8737 46.36 71.7537 44.68 70.1537 41.32C69.3537 39.68 68.7937 37.92 68.4737 36.04C68.1937 34.12 68.0537 32.14 68.0537 30.1C68.0537 28.02 68.0737 26.5 68.1137 25.54C68.1537 24.54 68.2537 23.4 68.4137 22.12C68.5737 20.8 68.7937 19.7 69.0737 18.82C69.3937 17.94 69.8337 17.04 70.3937 16.12C70.9537 15.16 71.6337 14.4 72.4337 13.84C74.2337 12.6 76.5737 11.98 79.4537 11.98H87.6737L95.4737 11.5V46ZM87.6737 35.08V19H81.7337C79.5337 19 77.9937 19.84 77.1137 21.52C76.2737 23.2 75.8537 25.72 75.8537 29.08C75.8537 32.4 76.2537 34.74 77.0537 36.1C77.8937 37.46 79.4537 38.14 81.7337 38.14L87.6737 35.08ZM128.844 46H123.624L121.224 41.86L112.884 46.36C108.244 46.36 105.124 44.68 103.524 41.32C102.724 39.68 102.164 37.92 101.844 36.04C101.564 34.12 101.424 32.14 101.424 30.1C101.424 28.02 101.444 26.5 101.484 25.54C101.524 24.54 101.624 23.4 101.784 22.12C101.944 20.8 102.164 19.7 102.444 18.82C102.764 17.94 103.204 17.04 103.764 16.12C104.324 15.16 105.004 14.4 105.804 13.84C107.604 12.6 109.944 11.98 112.824 11.98H121.044V0.879998H128.844V46ZM121.044 35.08V19H115.104C112.904 19 111.364 19.84 110.484 21.52C109.644 23.2 109.224 25.72 109.224 29.08C109.224 32.4 109.624 34.74 110.424 36.1C111.264 37.46 112.824 38.14 115.104 38.14L121.044 35.08Z"/>
<path d="M169.137 33.7C169.137 37.66 168.057 40.7 165.897 42.82C163.777 44.94 160.797 46 156.957 46H151.197C146.477 46 143.117 45.18 141.117 43.54C139.157 41.9 138.177 39.06 138.177 35.02V3.28H156.237C160.317 3.28 163.377 4.3 165.417 6.34C167.497 8.38 168.537 11.26 168.537 14.98C168.537 17.14 167.977 18.98 166.857 20.5C165.777 22.02 164.577 23.1 163.257 23.74C167.177 25.58 169.137 28.9 169.137 33.7ZM155.577 19.96C158.657 19.96 160.197 18.42 160.197 15.34C160.197 12.26 158.657 10.72 155.577 10.72H146.517V19.96H155.577ZM160.797 33.28C160.797 31.36 160.457 29.92 159.777 28.96C159.097 27.96 157.877 27.46 156.117 27.46H146.517V34.18C146.517 35.82 146.917 36.96 147.717 37.6C148.557 38.24 149.917 38.56 151.797 38.56H156.117C159.237 38.56 160.797 36.8 160.797 33.28ZM195.609 30.52V27.4C195.609 24.44 195.169 22.18 194.289 20.62C193.449 19.06 191.669 18.28 188.949 18.28C184.549 18.28 182.349 21.24 182.349 27.16V30.28C182.349 36.64 184.549 39.82 188.949 39.82C191.789 39.82 193.649 38.76 194.529 36.64C195.249 34.96 195.609 32.92 195.609 30.52ZM203.409 28.72C203.409 36.12 202.009 41.08 199.209 43.6C196.849 45.76 193.429 46.84 188.949 46.84C183.229 46.84 179.369 45.16 177.369 41.8C175.489 38.72 174.549 34.36 174.549 28.72C174.549 23.44 175.489 19.3 177.369 16.3C179.449 12.94 183.229 11.26 188.709 11.26C194.229 11.26 198.049 12.74 200.169 15.7C202.329 18.62 203.409 22.96 203.409 28.72ZM235.868 46H227.108L221.048 35.5L215.348 46H205.988L217.088 28.54L206.408 11.74H215.168L221.168 21.64L226.988 11.74H235.748L225.068 28.54L235.868 46Z"/>
</mask>
<path d="M32.2918 24.46L32.3518 29.08C32.1918 32 31.8318 34.46 31.2718 36.46C30.7118 38.46 29.6118 40.28 27.9718 41.92C25.2518 44.64 21.2918 46 16.0918 46C9.9718 46 5.7718 45.2 3.4918 43.6C1.2118 41.96 0.0717971 39.02 0.0717971 34.78V3.28H16.6918C21.4918 3.28 25.2518 4.64 27.9718 7.36C30.1718 9.56 31.4718 12.24 31.8718 15.4C32.1518 17.64 32.2918 20.66 32.2918 24.46ZM22.1518 35.92C22.9118 35 23.3918 33.74 23.5918 32.14C23.8318 30.5 23.9518 27.96 23.9518 24.52C23.9518 21.08 23.8318 18.6 23.5918 17.08C23.3918 15.52 22.9118 14.28 22.1518 13.36C20.7118 11.6 18.6318 10.72 15.9118 10.72H8.4118V34.36C8.4118 35.96 8.9518 37.06 10.0318 37.66C11.1118 38.26 13.0318 38.56 15.7918 38.56C18.5918 38.56 20.7118 37.68 22.1518 35.92ZM64.7026 30.7H44.7226C44.7226 33.82 45.2026 36.1 46.1626 37.54C47.1626 38.98 49.1426 39.7 52.1026 39.7C54.0226 39.7 55.4426 39.1 56.3626 37.9C57.2826 36.66 57.7426 35.48 57.7426 34.36H64.7626C64.7626 38.64 63.6026 41.78 61.2826 43.78C59.0026 45.78 55.9626 46.78 52.1626 46.78C48.4026 46.78 45.4826 46.24 43.4026 45.16C39.1226 42.96 36.9826 37.12 36.9826 27.64C36.9826 22 38.2026 17.88 40.6426 15.28C43.0826 12.64 46.8026 11.32 51.8026 11.32C60.4826 11.32 64.8226 16.14 64.8226 25.78C64.8226 26.82 64.7826 28.46 64.7026 30.7ZM44.9026 25.36H57.7426C57.7426 22.72 57.2426 20.8 56.2426 19.6C55.2426 18.4 53.7026 17.8 51.6226 17.8C49.5826 17.8 47.9426 18.42 46.7026 19.66C45.5026 20.86 44.9026 22.76 44.9026 25.36ZM95.4737 46H90.2537L87.8537 41.86L79.5137 46.36C74.8737 46.36 71.7537 44.68 70.1537 41.32C69.3537 39.68 68.7937 37.92 68.4737 36.04C68.1937 34.12 68.0537 32.14 68.0537 30.1C68.0537 28.02 68.0737 26.5 68.1137 25.54C68.1537 24.54 68.2537 23.4 68.4137 22.12C68.5737 20.8 68.7937 19.7 69.0737 18.82C69.3937 17.94 69.8337 17.04 70.3937 16.12C70.9537 15.16 71.6337 14.4 72.4337 13.84C74.2337 12.6 76.5737 11.98 79.4537 11.98H87.6737L95.4737 11.5V46ZM87.6737 35.08V19H81.7337C79.5337 19 77.9937 19.84 77.1137 21.52C76.2737 23.2 75.8537 25.72 75.8537 29.08C75.8537 32.4 76.2537 34.74 77.0537 36.1C77.8937 37.46 79.4537 38.14 81.7337 38.14L87.6737 35.08ZM128.844 46H123.624L121.224 41.86L112.884 46.36C108.244 46.36 105.124 44.68 103.524 41.32C102.724 39.68 102.164 37.92 101.844 36.04C101.564 34.12 101.424 32.14 101.424 30.1C101.424 28.02 101.444 26.5 101.484 25.54C101.524 24.54 101.624 23.4 101.784 22.12C101.944 20.8 102.164 19.7 102.444 18.82C102.764 17.94 103.204 17.04 103.764 16.12C104.324 15.16 105.004 14.4 105.804 13.84C107.604 12.6 109.944 11.98 112.824 11.98H121.044V0.879998H128.844V46ZM121.044 35.08V19H115.104C112.904 19 111.364 19.84 110.484 21.52C109.644 23.2 109.224 25.72 109.224 29.08C109.224 32.4 109.624 34.74 110.424 36.1C111.264 37.46 112.824 38.14 115.104 38.14L121.044 35.08Z" fill="#E90C0C"/>
<path d="M169.137 33.7C169.137 37.66 168.057 40.7 165.897 42.82C163.777 44.94 160.797 46 156.957 46H151.197C146.477 46 143.117 45.18 141.117 43.54C139.157 41.9 138.177 39.06 138.177 35.02V3.28H156.237C160.317 3.28 163.377 4.3 165.417 6.34C167.497 8.38 168.537 11.26 168.537 14.98C168.537 17.14 167.977 18.98 166.857 20.5C165.777 22.02 164.577 23.1 163.257 23.74C167.177 25.58 169.137 28.9 169.137 33.7ZM155.577 19.96C158.657 19.96 160.197 18.42 160.197 15.34C160.197 12.26 158.657 10.72 155.577 10.72H146.517V19.96H155.577ZM160.797 33.28C160.797 31.36 160.457 29.92 159.777 28.96C159.097 27.96 157.877 27.46 156.117 27.46H146.517V34.18C146.517 35.82 146.917 36.96 147.717 37.6C148.557 38.24 149.917 38.56 151.797 38.56H156.117C159.237 38.56 160.797 36.8 160.797 33.28ZM195.609 30.52V27.4C195.609 24.44 195.169 22.18 194.289 20.62C193.449 19.06 191.669 18.28 188.949 18.28C184.549 18.28 182.349 21.24 182.349 27.16V30.28C182.349 36.64 184.549 39.82 188.949 39.82C191.789 39.82 193.649 38.76 194.529 36.64C195.249 34.96 195.609 32.92 195.609 30.52ZM203.409 28.72C203.409 36.12 202.009 41.08 199.209 43.6C196.849 45.76 193.429 46.84 188.949 46.84C183.229 46.84 179.369 45.16 177.369 41.8C175.489 38.72 174.549 34.36 174.549 28.72C174.549 23.44 175.489 19.3 177.369 16.3C179.449 12.94 183.229 11.26 188.709 11.26C194.229 11.26 198.049 12.74 200.169 15.7C202.329 18.62 203.409 22.96 203.409 28.72ZM235.868 46H227.108L221.048 35.5L215.348 46H205.988L217.088 28.54L206.408 11.74H215.168L221.168 21.64L226.988 11.74H235.748L225.068 28.54L235.868 46Z" fill="black"/>
<path d="M32.2918 24.46H29.2918V24.4795L29.292 24.499L32.2918 24.46ZM32.3518 29.08L35.3473 29.2441L35.3529 29.1427L35.3515 29.041L32.3518 29.08ZM31.2718 36.46L28.3829 35.6511V35.6511L31.2718 36.46ZM27.9718 41.92L30.0931 44.0413L27.9718 41.92ZM3.4918 43.6L1.74001 46.0354L1.75421 46.0456L1.76852 46.0557L3.4918 43.6ZM0.0717974 3.28V0.279999H-2.9282V3.28H0.0717974ZM27.9718 7.36L30.0931 5.23868H30.0931L27.9718 7.36ZM31.8718 15.4L34.8486 15.0279L34.848 15.0233L31.8718 15.4ZM22.1518 35.92L19.8389 34.0094L19.8344 34.0148L19.8299 34.0203L22.1518 35.92ZM23.5918 32.14L20.6234 31.7056L20.6189 31.7367L20.615 31.7679L23.5918 32.14ZM23.5918 17.08L20.6162 17.4615L20.6217 17.5048L20.6285 17.5479L23.5918 17.08ZM22.1518 13.36L19.8299 15.2597L19.8344 15.2652L19.8389 15.2706L22.1518 13.36ZM8.4118 10.72V7.72H5.4118V10.72H8.4118ZM10.0318 37.66L8.57487 40.2825L10.0318 37.66ZM29.292 24.499L29.3521 29.119L35.3515 29.041L35.2915 24.421L29.292 24.499ZM29.3563 28.9159C29.2038 31.6986 28.8656 33.9273 28.3829 35.6511L34.1607 37.2689C34.798 34.9927 35.1798 32.3014 35.3473 29.2441L29.3563 28.9159ZM28.3829 35.6511C27.9775 37.0991 27.1696 38.4796 25.8505 39.7987L30.0931 44.0413C32.054 42.0804 33.4461 39.8209 34.1607 37.2689L28.3829 35.6511ZM25.8505 39.7987C23.8683 41.7809 20.7839 43 16.0918 43V49C21.7997 49 26.6353 47.4991 30.0931 44.0413L25.8505 39.7987ZM16.0918 43C13.1469 43 10.7679 42.8063 8.91313 42.453C7.02944 42.0942 5.87113 41.6047 5.21507 41.1443L1.76852 46.0557C3.39247 47.1953 5.47415 47.9058 7.79046 48.347C10.1357 48.7937 12.9167 49 16.0918 49V43ZM5.24359 41.1646C4.08676 40.3325 3.0718 38.5671 3.0718 34.78H-2.9282C-2.9282 39.4729 -1.66316 43.5875 1.74001 46.0354L5.24359 41.1646ZM3.0718 34.78V3.28H-2.9282V34.78H3.0718ZM0.0717974 6.28H16.6918V0.279999H0.0717974V6.28ZM16.6918 6.28C20.9046 6.28 23.8251 7.4559 25.8505 9.48132L30.0931 5.23868C26.6785 1.82409 22.079 0.279999 16.6918 0.279999V6.28ZM25.8505 9.48132C27.5679 11.1988 28.577 13.26 28.8955 15.7767L34.848 15.0233C34.3666 11.22 32.7757 7.92122 30.0931 5.23868L25.8505 9.48132ZM28.895 15.7721C29.1527 17.8337 29.2918 20.7128 29.2918 24.46H35.2918C35.2918 20.6072 35.1509 17.4463 34.8486 15.0279L28.895 15.7721ZM24.4647 37.8306C25.6942 36.3423 26.322 34.4848 26.5686 32.5121L20.615 31.7679C20.4615 32.9952 20.1294 33.6577 19.8389 34.0094L24.4647 37.8306ZM26.5602 32.5744C26.8334 30.7072 26.9518 27.9855 26.9518 24.52H20.9518C20.9518 27.9345 20.8302 30.2928 20.6234 31.7056L26.5602 32.5744ZM26.9518 24.52C26.9518 21.0664 26.8347 18.3829 26.5551 16.6121L20.6285 17.5479C20.8289 18.8171 20.9518 21.0936 20.9518 24.52H26.9518ZM26.5674 16.6985C26.3178 14.7513 25.6835 12.9248 24.4647 11.4494L19.8389 15.2706C20.1401 15.6352 20.4658 16.2887 20.6162 17.4615L26.5674 16.6985ZM24.4737 11.4603C22.3507 8.8655 19.3361 7.72 15.9118 7.72V13.72C17.9275 13.72 19.0729 14.3345 19.8299 15.2597L24.4737 11.4603ZM15.9118 7.72H8.4118V13.72H15.9118V7.72ZM5.4118 10.72V34.36H11.4118V10.72H5.4118ZM5.4118 34.36C5.4118 36.677 6.2561 38.9943 8.57487 40.2825L11.4887 35.0375C11.4697 35.0269 11.4777 35.0286 11.4949 35.0466C11.5122 35.0649 11.5161 35.0758 11.5098 35.063C11.4938 35.0303 11.4118 34.8364 11.4118 34.36H5.4118ZM8.57487 40.2825C10.3883 41.2899 13.0059 41.56 15.7918 41.56V35.56C13.0577 35.56 11.8353 35.2301 11.4887 35.0375L8.57487 40.2825ZM15.7918 41.56C19.2632 41.56 22.3335 40.4355 24.4737 37.8197L19.8299 34.0203C19.0901 34.9245 17.9204 35.56 15.7918 35.56V41.56ZM64.7026 30.7V33.7H67.5974L67.7007 30.8071L64.7026 30.7ZM44.7226 30.7V27.7H41.7226V30.7H44.7226ZM46.1626 37.54L43.6664 39.2041L43.6822 39.2278L43.6985 39.2512L46.1626 37.54ZM56.3626 37.9L58.7434 39.7253L58.7578 39.7065L58.7719 39.6875L56.3626 37.9ZM57.7426 34.36V31.36H54.7426V34.36H57.7426ZM64.7626 34.36H67.7626V31.36H64.7626V34.36ZM61.2826 43.78L59.3238 41.5078L59.314 41.5162L59.3043 41.5247L61.2826 43.78ZM43.4026 45.16L44.785 42.4975L44.7741 42.4918L43.4026 45.16ZM40.6426 15.28L42.8301 17.3329L42.838 17.3246L42.8457 17.3162L40.6426 15.28ZM44.9026 25.36H41.9026V28.36H44.9026V25.36ZM57.7426 25.36V28.36H60.7426V25.36H57.7426ZM46.7026 19.66L48.8239 21.7813L46.7026 19.66ZM64.7026 27.7H44.7226V33.7H64.7026V27.7ZM41.7226 30.7C41.7226 33.9996 42.2062 37.0138 43.6664 39.2041L48.6587 35.8759C48.1989 35.1862 47.7226 33.6404 47.7226 30.7H41.7226ZM43.6985 39.2512C45.5573 41.928 48.8353 42.7 52.1026 42.7V36.7C49.4499 36.7 48.7678 36.032 48.6267 35.8288L43.6985 39.2512ZM52.1026 42.7C54.6791 42.7 57.1062 41.8607 58.7434 39.7253L53.9818 36.0747C53.7789 36.3393 53.3661 36.7 52.1026 36.7V42.7ZM58.7719 39.6875C59.9331 38.1223 60.7426 36.3275 60.7426 34.36H54.7426C54.7426 34.6325 54.632 35.1977 53.9533 36.1125L58.7719 39.6875ZM57.7426 37.36H64.7626V31.36H57.7426V37.36ZM61.7626 34.36C61.7626 38.1279 60.7512 40.2772 59.3238 41.5078L63.2414 46.0522C66.4539 43.2828 67.7626 39.1521 67.7626 34.36H61.7626ZM59.3043 41.5247C57.6996 42.9324 55.4252 43.78 52.1626 43.78V49.78C56.4999 49.78 60.3056 48.6276 63.2609 46.0353L59.3043 41.5247ZM52.1626 43.78C48.6239 43.78 46.2552 43.2609 44.785 42.4975L42.0201 47.8225C44.7099 49.2191 48.1813 49.78 52.1626 49.78V43.78ZM44.7741 42.4918C43.4822 41.8278 42.2934 40.5238 41.4044 38.0978C40.5017 35.6343 39.9826 32.193 39.9826 27.64H33.9826C33.9826 32.567 34.5335 36.7857 35.7707 40.1622C37.0218 43.5762 39.043 46.2922 42.0311 47.8282L44.7741 42.4918ZM39.9826 27.64C39.9826 22.3376 41.1441 19.1295 42.8301 17.3329L38.455 13.2271C35.261 16.6305 33.9826 21.6624 33.9826 27.64H39.9826ZM42.8457 17.3162C44.5237 15.5007 47.3023 14.32 51.8026 14.32V8.32C46.3028 8.32 41.6414 9.77932 38.4394 13.2438L42.8457 17.3162ZM51.8026 14.32C55.5941 14.32 57.9118 15.3583 59.3382 16.9424C60.8184 18.5864 61.8226 21.3493 61.8226 25.78H67.8226C67.8226 20.5707 66.6568 16.1036 63.797 12.9276C60.8834 9.69173 56.691 8.32 51.8026 8.32V14.32ZM61.8226 25.78C61.8226 26.7629 61.7843 28.3577 61.7045 30.5929L67.7007 30.8071C67.7808 28.5623 67.8226 26.8771 67.8226 25.78H61.8226ZM44.9026 28.36H57.7426V22.36H44.9026V28.36ZM60.7426 25.36C60.7426 22.462 60.2161 19.6821 58.5472 17.6794L53.9379 21.5206C54.269 21.9179 54.7426 22.978 54.7426 25.36H60.7426ZM58.5472 17.6794C56.8027 15.586 54.2785 14.8 51.6226 14.8V20.8C53.1267 20.8 53.6825 21.214 53.9379 21.5206L58.5472 17.6794ZM51.6226 14.8C48.9273 14.8 46.4759 15.644 44.5813 17.5387L48.8239 21.7813C49.4092 21.196 50.2378 20.8 51.6226 20.8V14.8ZM44.5813 17.5387C42.581 19.5389 41.9026 22.3791 41.9026 25.36H47.9026C47.9026 23.1409 48.4241 22.1811 48.8239 21.7813L44.5813 17.5387ZM95.4737 46V49H98.4737V46H95.4737ZM90.2537 46L87.6582 47.5046L88.5252 49H90.2537V46ZM87.8537 41.86L90.4491 40.3554L88.9898 37.8381L86.4291 39.2198L87.8537 41.86ZM79.5137 46.36V49.36H80.2714L80.9382 49.0002L79.5137 46.36ZM70.1537 41.32L72.8623 40.0302L72.8562 40.0174L72.85 40.0047L70.1537 41.32ZM68.4737 36.04L65.5051 36.4729L65.5102 36.5082L65.5162 36.5434L68.4737 36.04ZM68.1137 25.54L71.1111 25.6649L71.1113 25.6599L68.1137 25.54ZM68.4137 22.12L71.3905 22.4921L71.3919 22.481L68.4137 22.12ZM69.0737 18.82L66.2543 17.7948L66.2334 17.8522L66.2149 17.9104L69.0737 18.82ZM70.3937 16.12L72.9563 17.6798L72.9709 17.6559L72.985 17.6316L70.3937 16.12ZM72.4337 13.84L70.7318 11.3695L70.7225 11.3759L70.7133 11.3823L72.4337 13.84ZM87.6737 11.98V14.98H87.7659L87.8579 14.9743L87.6737 11.98ZM95.4737 11.5H98.4737V8.30971L95.2894 8.50566L95.4737 11.5ZM87.6737 35.08L89.0475 37.7469L90.6737 36.9092V35.08H87.6737ZM87.6737 19H90.6737V16H87.6737V19ZM77.1137 21.52L74.4562 20.128L74.443 20.153L74.4304 20.1784L77.1137 21.52ZM77.0537 36.1L74.4679 37.6211L74.4843 37.6489L74.5013 37.6765L77.0537 36.1ZM81.7337 38.14V41.14H82.461L83.1075 40.8069L81.7337 38.14ZM95.4737 43H90.2537V49H95.4737V43ZM92.8491 44.4954L90.4491 40.3554L85.2583 43.3646L87.6582 47.5046L92.8491 44.4954ZM86.4291 39.2198L78.0891 43.7198L80.9382 49.0002L89.2782 44.5002L86.4291 39.2198ZM79.5137 43.36C77.5415 43.36 76.1244 43.0016 75.116 42.4586C74.1468 41.9367 73.4027 41.1652 72.8623 40.0302L67.4451 42.6098C68.5046 44.8348 70.1205 46.5833 72.2714 47.7414C74.3829 48.8784 76.8458 49.36 79.5137 49.36V43.36ZM72.85 40.0047C72.1808 38.6329 71.7054 37.1477 71.4311 35.5366L65.5162 36.5434C65.882 38.6923 66.5265 40.7271 67.4574 42.6353L72.85 40.0047ZM71.4423 35.6071C71.1842 33.8376 71.0537 32.0025 71.0537 30.1H65.0537C65.0537 32.2775 65.2031 34.4024 65.5051 36.4729L71.4423 35.6071ZM71.0537 30.1C71.0537 28.0253 71.0738 26.5583 71.1111 25.6649L65.1163 25.4151C65.0735 26.4417 65.0537 28.0147 65.0537 30.1H71.0537ZM71.1113 25.6599C71.1471 24.7642 71.2382 23.7109 71.3905 22.4921L65.4368 21.7479C65.2692 23.0891 65.1602 24.3158 65.1161 25.4201L71.1113 25.6599ZM71.3919 22.481C71.5382 21.2735 71.7281 20.3719 71.9324 19.7296L66.2149 17.9104C65.8592 19.0281 65.6091 20.3265 65.4355 21.759L71.3919 22.481ZM71.8931 19.8452C72.1361 19.1768 72.4843 18.4552 72.9563 17.6798L67.8311 14.5602C67.183 15.6248 66.6512 16.7032 66.2543 17.7948L71.8931 19.8452ZM72.985 17.6316C73.3567 16.9945 73.7554 16.5768 74.1541 16.2977L70.7133 11.3823C69.512 12.2232 68.5507 13.3255 67.8023 14.6084L72.985 17.6316ZM74.1356 16.3105C75.2981 15.5097 76.9909 14.98 79.4537 14.98V8.98C76.1565 8.98 73.1692 9.69035 70.7318 11.3695L74.1356 16.3105ZM79.4537 14.98H87.6737V8.98H79.4537V14.98ZM87.8579 14.9743L95.6579 14.4943L95.2894 8.50566L87.4894 8.98566L87.8579 14.9743ZM92.4737 11.5V46H98.4737V11.5H92.4737ZM90.6737 35.08V19H84.6737V35.08H90.6737ZM87.6737 16H81.7337V22H87.6737V16ZM81.7337 16C80.257 16 78.8011 16.2823 77.4921 16.9963C76.1588 17.7236 75.1481 18.8071 74.4562 20.128L79.7712 22.912C79.9593 22.5529 80.1586 22.3764 80.3652 22.2637C80.5963 22.1376 81.0103 22 81.7337 22V16ZM74.4304 20.1784C73.2769 22.4852 72.8537 25.5668 72.8537 29.08H78.8537C78.8537 25.8732 79.2704 23.9148 79.797 22.8616L74.4304 20.1784ZM72.8537 29.08C72.8537 32.4643 73.23 35.5167 74.4679 37.6211L79.6395 34.5789C79.2774 33.9633 78.8537 32.3357 78.8537 29.08H72.8537ZM74.5013 37.6765C76.102 40.2681 78.8995 41.14 81.7337 41.14V35.14C80.0079 35.14 79.6854 34.6519 79.6061 34.5235L74.5013 37.6765ZM83.1075 40.8069L89.0475 37.7469L86.2998 32.4131L80.3598 35.4731L83.1075 40.8069ZM128.844 46V49H131.844V46H128.844ZM123.624 46L121.029 47.5046L121.896 49H123.624V46ZM121.224 41.86L123.82 40.3554L122.361 37.8381L119.8 39.2198L121.224 41.86ZM112.884 46.36V49.36H113.642L114.309 49.0002L112.884 46.36ZM103.524 41.32L106.233 40.0302L106.227 40.0174L106.221 40.0047L103.524 41.32ZM101.844 36.04L98.8759 36.4729L98.881 36.5082L98.887 36.5434L101.844 36.04ZM101.484 25.54L104.482 25.6649L104.482 25.6599L101.484 25.54ZM101.784 22.12L104.761 22.4921L104.763 22.481L101.784 22.12ZM102.444 18.82L99.6251 17.7948L99.6042 17.8522L99.5857 17.9104L102.444 18.82ZM103.764 16.12L106.327 17.6798L106.342 17.6559L106.356 17.6316L103.764 16.12ZM105.804 13.84L104.103 11.3695L104.093 11.3759L104.084 11.3823L105.804 13.84ZM121.044 11.98V14.98H124.044V11.98H121.044ZM121.044 0.879998V-2.12H118.044V0.879998H121.044ZM128.844 0.879998H131.844V-2.12H128.844V0.879998ZM121.044 35.08L122.418 37.7469L124.044 36.9092V35.08H121.044ZM121.044 19H124.044V16H121.044V19ZM110.484 21.52L107.827 20.128L107.814 20.153L107.801 20.1784L110.484 21.52ZM110.424 36.1L107.839 37.6211L107.855 37.6489L107.872 37.6765L110.424 36.1ZM115.104 38.14V41.14H115.832L116.478 40.8069L115.104 38.14ZM128.844 43H123.624V49H128.844V43ZM126.22 44.4954L123.82 40.3554L118.629 43.3646L121.029 47.5046L126.22 44.4954ZM119.8 39.2198L111.46 43.7198L114.309 49.0002L122.649 44.5002L119.8 39.2198ZM112.884 43.36C110.912 43.36 109.495 43.0016 108.487 42.4586C107.518 41.9367 106.774 41.1652 106.233 40.0302L100.816 42.6098C101.875 44.8348 103.491 46.5833 105.642 47.7414C107.754 48.8784 110.217 49.36 112.884 49.36V43.36ZM106.221 40.0047C105.552 38.6329 105.076 37.1477 104.802 35.5366L98.887 36.5434C99.2528 38.6923 99.8973 40.7271 100.828 42.6353L106.221 40.0047ZM104.813 35.6071C104.555 33.8376 104.424 32.0025 104.424 30.1H98.4245C98.4245 32.2775 98.5739 34.4024 98.8759 36.4729L104.813 35.6071ZM104.424 30.1C104.424 28.0253 104.445 26.5583 104.482 25.6649L98.4871 25.4151C98.4443 26.4417 98.4245 28.0147 98.4245 30.1H104.424ZM104.482 25.6599C104.518 24.7642 104.609 23.7109 104.761 22.4921L98.8076 21.7479C98.64 23.0891 98.531 24.3158 98.4868 25.4201L104.482 25.6599ZM104.763 22.481C104.909 21.2735 105.099 20.3719 105.303 19.7296L99.5857 17.9104C99.23 19.0281 98.9799 20.3265 98.8063 21.759L104.763 22.481ZM105.264 19.8452C105.507 19.1768 105.855 18.4552 106.327 17.6798L101.202 14.5602C100.554 15.6248 100.022 16.7032 99.6251 17.7948L105.264 19.8452ZM106.356 17.6316C106.727 16.9945 107.126 16.5768 107.525 16.2977L104.084 11.3823C102.883 12.2232 101.921 13.3255 101.173 14.6084L106.356 17.6316ZM107.506 16.3105C108.669 15.5097 110.362 14.98 112.824 14.98V8.98C109.527 8.98 106.54 9.69035 104.103 11.3695L107.506 16.3105ZM112.824 14.98H121.044V8.98H112.824V14.98ZM124.044 11.98V0.879998H118.044V11.98H124.044ZM121.044 3.88H128.844V-2.12H121.044V3.88ZM125.844 0.879998V46H131.844V0.879998H125.844ZM124.044 35.08V19H118.044V35.08H124.044ZM121.044 16H115.104V22H121.044V16ZM115.104 16C113.628 16 112.172 16.2823 110.863 16.9963C109.53 17.7236 108.519 18.8071 107.827 20.128L113.142 22.912C113.33 22.5529 113.529 22.3764 113.736 22.2637C113.967 22.1376 114.381 22 115.104 22V16ZM107.801 20.1784C106.648 22.4852 106.224 25.5668 106.224 29.08H112.224C112.224 25.8732 112.641 23.9148 113.168 22.8616L107.801 20.1784ZM106.224 29.08C106.224 32.4643 106.601 35.5167 107.839 37.6211L113.01 34.5789C112.648 33.9633 112.224 32.3357 112.224 29.08H106.224ZM107.872 37.6765C109.473 40.2681 112.27 41.14 115.104 41.14V35.14C113.379 35.14 113.056 34.6519 112.977 34.5235L107.872 37.6765ZM116.478 40.8069L122.418 37.7469L119.671 32.4131L113.731 35.4731L116.478 40.8069ZM165.897 42.82L163.796 40.6789L163.786 40.6888L163.776 40.6987L165.897 42.82ZM141.117 43.54L139.192 45.8408L139.204 45.8504L139.215 45.8598L141.117 43.54ZM138.177 3.28V0.279999H135.177V3.28H138.177ZM165.417 6.34L163.296 8.46132L163.306 8.47162L163.317 8.48182L165.417 6.34ZM166.857 20.5L164.442 18.7204L164.427 18.7413L164.412 18.7624L166.857 20.5ZM163.257 23.74L161.948 21.0406L156.29 23.7839L161.983 26.4557L163.257 23.74ZM146.517 10.72V7.72H143.517V10.72H146.517ZM146.517 19.96H143.517V22.96H146.517V19.96ZM159.777 28.96L157.296 30.6469L157.313 30.6706L157.329 30.694L159.777 28.96ZM146.517 27.46V24.46H143.517V27.46H146.517ZM147.717 37.6L145.843 39.9426L145.871 39.9648L145.899 39.9863L147.717 37.6ZM166.137 33.7C166.137 37.1137 165.219 39.2818 163.796 40.6789L167.999 44.9611C170.895 42.1181 172.137 38.2063 172.137 33.7H166.137ZM163.776 40.6987C162.365 42.1097 160.236 43 156.957 43V49C161.359 49 165.19 47.7703 168.019 44.9413L163.776 40.6987ZM156.957 43H151.197V49H156.957V43ZM151.197 43C146.666 43 144.192 42.1814 143.02 41.2202L139.215 45.8598C142.043 48.1786 146.289 49 151.197 49V43ZM143.042 41.2392C142.078 40.4322 141.177 38.6852 141.177 35.02H135.177C135.177 39.4348 136.237 43.3678 139.192 45.8408L143.042 41.2392ZM141.177 35.02V3.28H135.177V35.02H141.177ZM138.177 6.28H156.237V0.279999H138.177V6.28ZM156.237 6.28C159.855 6.28 162.017 7.18236 163.296 8.46132L167.539 4.21868C164.738 1.41764 160.78 0.279999 156.237 0.279999V6.28ZM163.317 8.48182C164.673 9.81213 165.537 11.8311 165.537 14.98H171.537C171.537 10.6889 170.321 6.94786 167.518 4.19818L163.317 8.48182ZM165.537 14.98C165.537 16.5956 165.129 17.7883 164.442 18.7204L169.272 22.2796C170.826 20.1717 171.537 17.6844 171.537 14.98H165.537ZM164.412 18.7624C163.546 19.9804 162.708 20.6723 161.948 21.0406L164.566 26.4394C166.447 25.5277 168.008 24.0596 169.303 22.2376L164.412 18.7624ZM161.983 26.4557C163.466 27.1522 164.447 28.0572 165.084 29.1351C165.732 30.2326 166.137 31.7062 166.137 33.7H172.137C172.137 30.8938 171.563 28.3074 170.251 26.0849C168.927 23.8428 166.968 22.1678 164.532 21.0243L161.983 26.4557ZM155.577 22.96C157.58 22.96 159.633 22.4574 161.164 20.9263C162.695 19.3953 163.197 17.3424 163.197 15.34H157.197C157.197 16.4176 156.93 16.6747 156.921 16.6837C156.912 16.6926 156.655 16.96 155.577 16.96V22.96ZM163.197 15.34C163.197 13.3376 162.695 11.2847 161.164 9.75368C159.633 8.22264 157.58 7.72 155.577 7.72V13.72C156.655 13.72 156.912 13.9874 156.921 13.9963C156.93 14.0053 157.197 14.2624 157.197 15.34H163.197ZM155.577 7.72H146.517V13.72H155.577V7.72ZM143.517 10.72V19.96H149.517V10.72H143.517ZM146.517 22.96H155.577V16.96H146.517V22.96ZM163.797 33.28C163.797 31.097 163.427 28.9226 162.225 27.2259L157.329 30.694C157.487 30.9174 157.797 31.623 157.797 33.28H163.797ZM162.258 27.2731C160.794 25.1199 158.388 24.46 156.117 24.46V30.46C156.73 30.46 157.065 30.5494 157.215 30.6109C157.25 30.6254 157.273 30.6375 157.287 30.6455C157.301 30.6534 157.307 30.658 157.307 30.6584C157.307 30.6587 157.305 30.6569 157.302 30.6532C157.298 30.6495 157.296 30.6469 157.296 30.6469L162.258 27.2731ZM156.117 24.46H146.517V30.46H156.117V24.46ZM143.517 27.46V34.18H149.517V27.46H143.517ZM143.517 34.18C143.517 36.1852 143.993 38.4626 145.843 39.9426L149.591 35.2574C149.704 35.3474 149.696 35.4076 149.648 35.2717C149.592 35.1123 149.517 34.7745 149.517 34.18H143.517ZM145.899 39.9863C147.534 41.2319 149.714 41.56 151.797 41.56V35.56C151.015 35.56 150.447 35.4922 150.054 35.3997C149.659 35.3066 149.53 35.2099 149.535 35.2137L145.899 39.9863ZM151.797 41.56H156.117V35.56H151.797V41.56ZM156.117 41.56C158.24 41.56 160.352 40.9447 161.872 39.2299C163.331 37.5841 163.797 35.4193 163.797 33.28H157.797C157.797 34.6607 157.483 35.1359 157.382 35.2501C157.342 35.2953 157.115 35.56 156.117 35.56V41.56ZM194.289 20.62L191.648 22.0423L191.662 22.0683L191.677 22.094L194.289 20.62ZM194.529 36.64L191.772 35.4582L191.765 35.474L191.759 35.4899L194.529 36.64ZM199.209 43.6L197.203 41.3701L197.193 41.3785L197.184 41.387L199.209 43.6ZM177.369 41.8L179.947 40.2655L179.939 40.2512L179.93 40.237L177.369 41.8ZM177.369 16.3L179.912 17.893L179.916 17.8861L179.92 17.8791L177.369 16.3ZM200.169 15.7L197.73 17.4468L197.744 17.4656L197.758 17.4841L200.169 15.7ZM198.609 30.52V27.4H192.609V30.52H198.609ZM198.609 27.4C198.609 24.223 198.151 21.3595 196.902 19.146L191.677 22.094C192.188 23.0005 192.609 24.657 192.609 27.4H198.609ZM196.931 19.1977C195.32 16.2067 192.129 15.28 188.949 15.28V21.28C191.21 21.28 191.579 21.9133 191.648 22.0423L196.931 19.1977ZM188.949 15.28C186.007 15.28 183.371 16.317 181.592 18.7104C179.937 20.937 179.349 23.9157 179.349 27.16H185.349C185.349 24.4843 185.862 23.023 186.407 22.2896C186.828 21.723 187.492 21.28 188.949 21.28V15.28ZM179.349 27.16V30.28H185.349V27.16H179.349ZM179.349 30.28C179.349 33.7132 179.926 36.8206 181.532 39.1418C183.277 41.6631 185.922 42.82 188.949 42.82V36.82C187.577 36.82 186.922 36.3869 186.467 35.7282C185.872 34.8694 185.349 33.2068 185.349 30.28H179.349ZM188.949 42.82C190.726 42.82 192.453 42.4902 193.96 41.6315C195.511 40.7475 196.625 39.4173 197.3 37.7901L191.759 35.4899C191.554 35.9827 191.298 36.2425 190.989 36.4185C190.636 36.6198 190.013 36.82 188.949 36.82V42.82ZM197.287 37.8218C198.209 35.6712 198.609 33.2052 198.609 30.52H192.609C192.609 32.6348 192.29 34.2488 191.772 35.4582L197.287 37.8218ZM200.409 28.72C200.409 35.999 198.979 39.7711 197.203 41.3701L201.216 45.8299C205.04 42.3889 206.409 36.241 206.409 28.72H200.409ZM197.184 41.387C195.565 42.869 192.98 43.84 188.949 43.84V49.84C193.879 49.84 198.134 48.651 201.235 45.813L197.184 41.387ZM188.949 43.84C183.752 43.84 181.18 42.3361 179.947 40.2655L174.792 43.3344C177.559 47.9839 182.707 49.84 188.949 49.84V43.84ZM179.93 40.237C178.456 37.8223 177.549 34.0927 177.549 28.72H171.549C171.549 34.6273 172.523 39.6177 174.809 43.363L179.93 40.237ZM177.549 28.72C177.549 23.7447 178.444 20.2356 179.912 17.893L174.827 14.707C172.535 18.3644 171.549 23.1353 171.549 28.72H177.549ZM179.92 17.8791C181.254 15.7241 183.824 14.26 188.709 14.26V8.26C182.635 8.26 177.645 10.1559 174.819 14.7209L179.92 17.8791ZM188.709 14.26C193.782 14.26 196.42 15.6174 197.73 17.4468L202.608 13.9532C199.679 9.86258 194.677 8.26 188.709 8.26V14.26ZM197.758 17.4841C199.37 19.664 200.409 23.2531 200.409 28.72H206.409C206.409 22.6669 205.289 17.576 202.581 13.9159L197.758 17.4841ZM235.868 46V49H241.251L238.419 44.4218L235.868 46ZM227.108 46L224.509 47.4996L225.375 49H227.108V46ZM221.048 35.5L223.646 34.0004L220.967 29.3595L218.411 34.0687L221.048 35.5ZM215.348 46V49H217.133L217.984 47.4313L215.348 46ZM205.988 46L203.456 44.3905L200.525 49H205.988V46ZM217.088 28.54L219.619 30.1495L220.642 28.54L219.619 26.9305L217.088 28.54ZM206.408 11.74V8.74H200.946L203.876 13.3495L206.408 11.74ZM215.168 11.74L217.733 10.1851L216.857 8.74H215.168V11.74ZM221.168 21.64L218.602 23.1949L221.207 27.4929L223.754 23.1604L221.168 21.64ZM226.988 11.74V8.74H225.271L224.401 10.2196L226.988 11.74ZM235.748 11.74L238.279 13.3495L241.21 8.74H235.748V11.74ZM225.068 28.54L222.536 26.9305L221.527 28.5182L222.516 30.1182L225.068 28.54ZM235.868 43H227.108V49H235.868V43ZM229.706 44.5004L223.646 34.0004L218.449 36.9996L224.509 47.4996L229.706 44.5004ZM218.411 34.0687L212.711 44.5687L217.984 47.4313L223.684 36.9313L218.411 34.0687ZM215.348 43H205.988V49H215.348V43ZM208.519 47.6095L219.619 30.1495L214.556 26.9305L203.456 44.3905L208.519 47.6095ZM219.619 26.9305L208.939 10.1305L203.876 13.3495L214.556 30.1495L219.619 26.9305ZM206.408 14.74H215.168V8.74H206.408V14.74ZM212.602 13.2949L218.602 23.1949L223.733 20.0851L217.733 10.1851L212.602 13.2949ZM223.754 23.1604L229.574 13.2604L224.401 10.2196L218.581 20.1196L223.754 23.1604ZM226.988 14.74H235.748V8.74H226.988V14.74ZM233.216 10.1305L222.536 26.9305L227.599 30.1495L238.279 13.3495L233.216 10.1305ZM222.516 30.1182L233.316 47.5782L238.419 44.4218L227.619 26.9618L222.516 30.1182Z" fill="white" mask="url(#path-1-outside-1_12_468)"/>
</svg>
