<svg width="19" height="19" viewBox="0 0 19 19" fill="none" xmlns="http://www.w3.org/2000/svg">
<g clip-path="url(#clip0_101_535)">
<path d="M16.0999 3.06667H13.7232C13.5453 2.20142 13.0745 1.42397 12.3902 0.86535C11.7059 0.306736 10.8499 0.00111514 9.96654 0L8.4332 0C7.54985 0.00111514 6.69388 0.306736 6.00958 0.86535C5.32527 1.42397 4.85448 2.20142 4.67654 3.06667H2.29987C2.09654 3.06667 1.90153 3.14744 1.75775 3.29122C1.61398 3.435 1.5332 3.63 1.5332 3.83333C1.5332 4.03667 1.61398 4.23167 1.75775 4.37545C1.90153 4.51923 2.09654 4.6 2.29987 4.6H3.06654V14.5667C3.06775 15.583 3.47201 16.5573 4.19064 17.2759C4.90926 17.9945 5.88358 18.3988 6.89987 18.4H11.4999C12.5162 18.3988 13.4905 17.9945 14.2091 17.2759C14.9277 16.5573 15.332 15.583 15.3332 14.5667V4.6H16.0999C16.3032 4.6 16.4982 4.51923 16.642 4.37545C16.7858 4.23167 16.8665 4.03667 16.8665 3.83333C16.8665 3.63 16.7858 3.435 16.642 3.29122C16.4982 3.14744 16.3032 3.06667 16.0999 3.06667ZM8.4332 1.53333H9.96654C10.4421 1.53391 10.9058 1.68159 11.2941 1.95611C11.6824 2.23062 11.9763 2.61854 12.1354 3.06667H6.2643C6.42345 2.61854 6.71733 2.23062 7.10563 1.95611C7.49394 1.68159 7.95766 1.53391 8.4332 1.53333ZM13.7999 14.5667C13.7999 15.1767 13.5576 15.7617 13.1262 16.193C12.6949 16.6243 12.1099 16.8667 11.4999 16.8667H6.89987C6.28987 16.8667 5.70486 16.6243 5.27352 16.193C4.84219 15.7617 4.59987 15.1767 4.59987 14.5667V4.6H13.7999V14.5667Z" fill="black"/>
<path d="M7.66657 13.8001C7.8699 13.8001 8.06491 13.7193 8.20868 13.5755C8.35246 13.4318 8.43324 13.2367 8.43324 13.0334V8.43341C8.43324 8.23008 8.35246 8.03508 8.20868 7.8913C8.06491 7.74752 7.8699 7.66675 7.66657 7.66675C7.46324 7.66675 7.26823 7.74752 7.12445 7.8913C6.98068 8.03508 6.8999 8.23008 6.8999 8.43341V13.0334C6.8999 13.2367 6.98068 13.4318 7.12445 13.5755C7.26823 13.7193 7.46324 13.8001 7.66657 13.8001Z" fill="black"/>
<path d="M10.7335 13.8001C10.9368 13.8001 11.1318 13.7193 11.2756 13.5755C11.4194 13.4318 11.5001 13.2367 11.5001 13.0334V8.43341C11.5001 8.23008 11.4194 8.03508 11.2756 7.8913C11.1318 7.74752 10.9368 7.66675 10.7335 7.66675C10.5301 7.66675 10.3351 7.74752 10.1913 7.8913C10.0476 8.03508 9.9668 8.23008 9.9668 8.43341V13.0334C9.9668 13.2367 10.0476 13.4318 10.1913 13.5755C10.3351 13.7193 10.5301 13.8001 10.7335 13.8001Z" fill="black"/>
</g>
<defs>
<clipPath id="clip0_101_535">
<rect width="18.4" height="18.4" fill="white"/>
</clipPath>
</defs>
</svg>
