<svg width="20" height="20" viewBox="0 0 20 20" fill="none" xmlns="http://www.w3.org/2000/svg">
<g clip-path="url(#clip0_116_508)">
<path d="M18.3873 1.61276C17.8661 1.09235 17.1597 0.800049 16.4231 0.800049C15.6866 0.800049 14.9801 1.09235 14.4589 1.61276L0.799988 15.2717V19.2001H4.72839L18.3873 5.54116C18.9076 5.01985 19.1997 4.31345 19.1997 3.57696C19.1997 2.84048 18.9076 2.13408 18.3873 1.61276ZM4.09666 17.6668H2.33332V15.9034L12.5377 5.70676L14.301 7.4701L4.09666 17.6668ZM17.3033 4.4571L15.3812 6.37913L13.6217 4.6158L15.543 2.69683C15.7768 2.463 16.094 2.33163 16.4247 2.33163C16.7553 2.33163 17.0725 2.463 17.3063 2.69683C17.5402 2.93066 17.6715 3.24781 17.6715 3.5785C17.6715 3.90919 17.5402 4.22633 17.3063 4.46016L17.3033 4.4571Z" fill="#24232C"/>
</g>
<defs>
<clipPath id="clip0_116_508">
<rect width="18.4" height="18.4" fill="white" transform="translate(0.799988 0.800049)"/>
</clipPath>
</defs>
</svg>
