<svg width="20" height="21" viewBox="0 0 20 21" fill="none" xmlns="http://www.w3.org/2000/svg">
<path d="M16.8749 18C16.7928 18.0001 16.7115 17.984 16.6357 17.9526C16.5599 17.9211 16.491 17.875 16.4331 17.8168L2.68312 4.0668C2.57086 3.94863 2.5092 3.79129 2.51128 3.62831C2.51337 3.46534 2.57904 3.30962 2.69429 3.19437C2.80954 3.07912 2.96525 3.01345 3.12823 3.01137C3.29121 3.00928 3.44855 3.07094 3.56671 3.1832L17.3167 16.9332C17.4041 17.0206 17.4635 17.1319 17.4876 17.2531C17.5117 17.3743 17.4994 17.5 17.4521 17.6141C17.4048 17.7283 17.3247 17.8259 17.222 17.8946C17.1193 17.9633 16.9985 17.9999 16.8749 18ZM9.68742 12.8379L7.66437 10.8148C7.65278 10.8033 7.63788 10.7958 7.62176 10.7932C7.60564 10.7906 7.58911 10.7931 7.5745 10.8004C7.55989 10.8077 7.54793 10.8194 7.5403 10.8338C7.53266 10.8482 7.52974 10.8647 7.53195 10.8809C7.61362 11.4057 7.86006 11.891 8.23566 12.2666C8.61125 12.6422 9.09655 12.8886 9.6214 12.9703C9.63758 12.9725 9.65404 12.9696 9.66847 12.962C9.6829 12.9543 9.69458 12.9424 9.70186 12.9278C9.70915 12.9131 9.71167 12.8966 9.70908 12.8805C9.70649 12.8644 9.69891 12.8495 9.68742 12.8379ZM10.3124 8.16211L12.3386 10.1875C12.3502 10.1992 12.3651 10.2069 12.3813 10.2096C12.3975 10.2122 12.4141 10.2097 12.4288 10.2024C12.4435 10.1951 12.4556 10.1834 12.4632 10.1688C12.4708 10.1543 12.4737 10.1377 12.4714 10.1215C12.3899 9.59592 12.1433 9.10992 11.7672 8.73385C11.3912 8.35778 10.9052 8.11115 10.3796 8.02969C10.3633 8.02718 10.3467 8.02987 10.332 8.03739C10.3174 8.04491 10.3055 8.05686 10.298 8.07155C10.2906 8.08624 10.288 8.1029 10.2905 8.11916C10.2931 8.13543 10.3008 8.15046 10.3124 8.16211Z" fill="#303030"/>
<path d="M19.1797 11.1781C19.309 10.9751 19.3774 10.7393 19.3767 10.4986C19.376 10.258 19.3063 10.0225 19.1758 9.82031C18.1422 8.22188 16.8012 6.86406 15.298 5.89336C13.6328 4.81836 11.7969 4.25 9.9875 4.25C9.03363 4.25131 8.08625 4.40683 7.18203 4.71055C7.15672 4.71896 7.13399 4.73372 7.116 4.75341C7.09801 4.7731 7.08535 4.79706 7.07925 4.82302C7.07314 4.84899 7.07377 4.87608 7.0811 4.90172C7.08842 4.92737 7.10219 4.95071 7.12109 4.96953L8.9664 6.81484C8.98557 6.83405 9.00941 6.84793 9.03558 6.85512C9.06174 6.86231 9.08933 6.86257 9.11562 6.85586C9.74111 6.70343 10.3953 6.7146 11.0152 6.88829C11.6352 7.06199 12.1999 7.39235 12.6551 7.84758C13.1104 8.30281 13.4407 8.86758 13.6144 9.4875C13.7881 10.1074 13.7993 10.7616 13.6469 11.3871C13.6402 11.4133 13.6405 11.4409 13.6477 11.4669C13.6549 11.493 13.6687 11.5168 13.6879 11.5359L16.3422 14.1922C16.3698 14.2199 16.4068 14.2362 16.4458 14.2379C16.4849 14.2396 16.5232 14.2267 16.5531 14.2016C17.5748 13.3307 18.4602 12.3116 19.1797 11.1781ZM10 14.25C9.43232 14.25 8.87204 14.1212 8.36141 13.8732C7.85078 13.6251 7.40312 13.2644 7.05219 12.8182C6.70125 12.372 6.4562 11.852 6.33552 11.2973C6.21483 10.7426 6.22165 10.1677 6.35547 9.61602C6.3621 9.58978 6.36181 9.56227 6.35462 9.53618C6.34743 9.51009 6.33359 9.48632 6.31445 9.46719L3.70351 6.85508C3.67583 6.82736 3.63874 6.81105 3.5996 6.80939C3.56046 6.80773 3.52212 6.82083 3.49219 6.84609C2.53945 7.65898 1.65625 8.64805 0.848826 9.80391C0.707492 10.0068 0.629654 10.2471 0.625202 10.4942C0.620751 10.7414 0.689887 10.9844 0.823826 11.1922C1.85547 12.8066 3.18281 14.1664 4.66289 15.1238C6.33047 16.2031 8.12187 16.75 9.9875 16.75C10.951 16.7474 11.9082 16.5952 12.825 16.2988C12.8505 16.2907 12.8735 16.2761 12.8918 16.2565C12.9101 16.2368 12.923 16.2129 12.9293 16.1868C12.9356 16.1608 12.9351 16.1335 12.9279 16.1077C12.9206 16.0819 12.9069 16.0584 12.8879 16.0395L11.0336 14.1855C11.0145 14.1664 10.9907 14.1526 10.9646 14.1454C10.9385 14.1382 10.911 14.1379 10.8848 14.1445C10.5951 14.2147 10.2981 14.2501 10 14.25Z" fill="#303030"/>
</svg>
