<svg width="24" height="24" viewBox="0 0 24 24" fill="none" xmlns="http://www.w3.org/2000/svg">
<path d="M2 21V3C2 2.73478 2.10536 2.48043 2.29289 2.29289C2.48043 2.10536 2.73478 2 3 2H8V0H3C2.20435 0 1.44129 0.31607 0.87868 0.87868C0.31607 1.44129 0 2.20435 0 3L0 21C0 21.7956 0.31607 22.5587 0.87868 23.1213C1.44129 23.6839 2.20435 24 3 24H8V22H3C2.73478 22 2.48043 21.8946 2.29289 21.7071C2.10536 21.5196 2 21.2652 2 21Z" fill="black"/>
<path d="M23.123 9.87897L18.537 5.29297L17.123 6.70697L21.387 10.971L5 11V13L21.443 12.971L17.121 17.293L18.535 18.707L23.121 14.121C23.6837 13.5587 24 12.7959 24.0004 12.0004C24.0007 11.2049 23.6851 10.4418 23.123 9.87897Z" fill="black"/>
</svg>
