<svg width="24" height="24" viewBox="0 0 24 24" fill="none" xmlns="http://www.w3.org/2000/svg">
<path d="M23.9997 24H12.0177C9.67672 23.9989 7.38716 23.3131 5.43105 22.027C3.47494 20.7409 1.93772 18.9108 1.00874 16.762C0.0797547 14.6132 -0.200424 12.2396 0.202713 9.93353C0.60585 7.62749 1.6747 5.48972 3.2776 3.78354C4.8805 2.07737 6.94745 0.877292 9.22387 0.331138C11.5003 -0.215015 13.8867 -0.0833956 16.0893 0.709785C18.2918 1.50297 20.2143 2.92307 21.6198 4.79517C23.0254 6.66727 23.8526 8.90961 23.9997 11.246V11.309V24ZM12.0177 2C9.36557 2 6.82203 3.05357 4.94666 4.92893C3.0713 6.8043 2.01773 9.34784 2.01773 12C2.01773 14.6522 3.0713 17.1957 4.94666 19.0711C6.82203 20.9464 9.36557 22 12.0177 22H21.9997V11.341C21.8283 8.80932 20.7024 6.43703 18.8497 4.70323C16.9969 2.96943 14.5552 2.00332 12.0177 2Z" fill="white"/>
<path d="M13 7H7V9H13V7Z" fill="white"/>
<path d="M17 11H7V13H17V11Z" fill="white"/>
<path d="M17 15H7V17H17V15Z" fill="white"/>
</svg>
