<svg width="24" height="24" viewBox="0 0 24 24" fill="none" xmlns="http://www.w3.org/2000/svg">
<path d="M23.2594 16.1999L20.6594 6.82893C20.1042 4.82435 18.8945 3.06307 17.2227 1.82542C15.5509 0.587761 13.5132 -0.055148 11.4339 -0.000988358C9.35453 0.0531713 7.35306 0.801287 5.74799 2.12429C4.14292 3.4473 3.02649 5.26916 2.5764 7.29993L0.565404 16.3499C0.468096 16.7884 0.47047 17.2431 0.572349 17.6805C0.674228 18.1179 0.873013 18.5268 1.15404 18.8771C1.43506 19.2275 1.79116 19.5102 2.19605 19.7045C2.60094 19.8989 3.04429 19.9998 3.4934 19.9999H7.1004C7.32992 21.1302 7.94313 22.1464 8.83615 22.8763C9.72916 23.6062 10.847 24.0049 12.0004 24.0049C13.1538 24.0049 14.2716 23.6062 15.1647 22.8763C16.0577 22.1464 16.6709 21.1302 16.9004 19.9999H20.3704C20.8325 19.9997 21.2883 19.8928 21.7023 19.6874C22.1163 19.482 22.4772 19.1838 22.7569 18.816C23.0367 18.4482 23.2276 18.0207 23.315 17.5669C23.4023 17.1131 23.3826 16.6453 23.2594 16.1999ZM12.0004 21.9999C11.3821 21.9974 10.7798 21.8038 10.2757 21.4458C9.77164 21.0878 9.39049 20.5828 9.1844 19.9999H14.8164C14.6103 20.5828 14.2292 21.0878 13.7251 21.4458C13.221 21.8038 12.6187 21.9974 12.0004 21.9999ZM21.1654 17.6049C21.0721 17.7286 20.9512 17.8288 20.8123 17.8973C20.6734 17.9659 20.5203 18.0011 20.3654 17.9999H3.4934C3.34367 17.9999 3.19584 17.9663 3.06085 17.9015C2.92586 17.8367 2.80714 17.7424 2.71346 17.6256C2.61978 17.5087 2.55352 17.3724 2.51959 17.2265C2.48566 17.0807 2.48491 16.9291 2.5174 16.7829L4.5284 7.73293C4.88276 6.13914 5.75971 4.70953 7.01986 3.67138C8.28001 2.63322 9.85103 2.0461 11.4832 2.00334C13.1153 1.96058 14.7149 2.46465 16.0277 3.4354C17.3405 4.40615 18.2911 5.78787 18.7284 7.36093L21.3284 16.7319C21.3709 16.8801 21.3782 17.0361 21.3499 17.1877C21.3216 17.3392 21.2585 17.482 21.1654 17.6049Z" fill="white"/>
</svg>
