<svg width="17" height="17" viewBox="0 0 17 17" fill="none" xmlns="http://www.w3.org/2000/svg">
<g opacity="0.7" clip-path="url(#clip0_167_1300)">
<path d="M16.7862 15.8443L12.8101 11.8682C13.8936 10.543 14.4263 8.85207 14.2981 7.14512C14.1698 5.43817 13.3904 3.84581 12.121 2.69741C10.8517 1.54902 9.18946 0.932445 7.47823 0.975231C5.76701 1.01802 4.13769 1.71689 2.92729 2.92729C1.71689 4.13769 1.01802 5.76701 0.975231 7.47823C0.932445 9.18946 1.54902 10.8517 2.69741 12.121C3.84581 13.3904 5.43817 14.1698 7.14512 14.2981C8.85207 14.4263 10.543 13.8936 11.8682 12.8101L15.8443 16.7862C15.9699 16.9075 16.1382 16.9746 16.3128 16.9731C16.4875 16.9716 16.6545 16.9015 16.778 16.778C16.9015 16.6545 16.9716 16.4875 16.9731 16.3128C16.9746 16.1382 16.9075 15.9699 16.7862 15.8443ZM7.65566 12.9846C6.60169 12.9846 5.57139 12.6721 4.69505 12.0865C3.81871 11.501 3.13568 10.6687 2.73235 9.69496C2.32901 8.72122 2.22348 7.64975 2.4291 6.61603C2.63472 5.58232 3.14225 4.63279 3.88752 3.88752C4.63279 3.14225 5.58232 2.63472 6.61603 2.4291C7.64975 2.22348 8.72122 2.32901 9.69496 2.73235C10.6687 3.13568 11.501 3.81871 12.0865 4.69505C12.6721 5.57139 12.9846 6.60169 12.9846 7.65566C12.983 9.0685 12.4211 10.423 11.422 11.422C10.423 12.4211 9.0685 12.983 7.65566 12.9846Z" fill="black"/>
</g>
<defs>
<clipPath id="clip0_167_1300">
<rect width="17" height="17" fill="white"/>
</clipPath>
</defs>
</svg>
