<svg width="24" height="24" viewBox="0 0 24 24" fill="none" xmlns="http://www.w3.org/2000/svg">
<path d="M15 24H8.99999V20.487C7.95725 20.1181 6.99145 19.5601 6.15099 18.841L3.10699 20.6L0.106995 15.4L3.14999 13.645C2.9501 12.5574 2.9501 11.4426 3.14999 10.355L0.106995 8.6L3.10699 3.4L6.15099 5.159C6.99145 4.43993 7.95725 3.88194 8.99999 3.513V0H15V3.513C16.0427 3.88194 17.0085 4.43993 17.849 5.159L20.893 3.4L23.893 8.6L20.85 10.355C21.0499 11.4426 21.0499 12.5574 20.85 13.645L23.893 15.4L20.893 20.6L17.849 18.842C17.0085 19.5607 16.0427 20.1184 15 20.487V24ZM11 22H13V18.973L13.751 18.779C14.983 18.4598 16.1044 17.8101 16.994 16.9L17.537 16.347L20.16 17.862L21.16 16.13L18.54 14.617L18.746 13.871C19.0846 12.6439 19.0846 11.3481 18.746 10.121L18.54 9.375L21.16 7.862L20.16 6.13L17.537 7.649L16.994 7.1C16.1039 6.19134 14.9826 5.54302 13.751 5.225L13 5.027V2H11V5.027L10.249 5.221C9.01698 5.54015 7.8956 6.18988 7.00599 7.1L6.46299 7.653L3.83999 6.134L2.83999 7.866L5.45999 9.379L5.25399 10.125C4.91535 11.3521 4.91535 12.6479 5.25399 13.875L5.45999 14.621L2.83999 16.134L3.83999 17.866L6.46299 16.351L7.00599 16.904C7.89608 17.8127 9.01742 18.461 10.249 18.779L11 18.973V22ZM12 16C11.2089 16 10.4355 15.7654 9.77771 15.3259C9.11992 14.8864 8.60723 14.2616 8.30448 13.5307C8.00173 12.7998 7.92251 11.9956 8.07685 11.2196C8.23119 10.4437 8.61216 9.73098 9.17157 9.17157C9.73098 8.61216 10.4437 8.2312 11.2196 8.07686C11.9956 7.92252 12.7998 8.00173 13.5307 8.30448C14.2616 8.60723 14.8863 9.11992 15.3259 9.77772C15.7654 10.4355 16 11.2089 16 12C16 13.0609 15.5786 14.0783 14.8284 14.8284C14.0783 15.5786 13.0609 16 12 16ZM12 10C11.6044 10 11.2178 10.1173 10.8889 10.3371C10.56 10.5568 10.3036 10.8692 10.1522 11.2346C10.0009 11.6001 9.96125 12.0022 10.0384 12.3902C10.1156 12.7781 10.3061 13.1345 10.5858 13.4142C10.8655 13.6939 11.2219 13.8844 11.6098 13.9616C11.9978 14.0387 12.3999 13.9991 12.7654 13.8478C13.1308 13.6964 13.4432 13.44 13.6629 13.1111C13.8827 12.7822 14 12.3956 14 12C14 11.4696 13.7893 10.9609 13.4142 10.5858C13.0391 10.2107 12.5304 10 12 10Z" fill="black"/>
</svg>
